<svg width="15" height="14" viewBox="0 0 15 14" fill="none" xmlns="http://www.w3.org/2000/svg">
<path d="M5.33334 10H12.158L13.3333 10.9233V4H14C14.1768 4 14.3464 4.07024 14.4714 4.19526C14.5964 4.32029 14.6667 4.48986 14.6667 4.66667V13.6667L11.6967 11.3333H6.00001C5.82319 11.3333 5.65363 11.2631 5.5286 11.1381C5.40358 11.013 5.33334 10.8435 5.33334 10.6667V10ZM3.63667 8.66667L0.666672 11V0.666667C0.666672 0.489856 0.73691 0.320286 0.861934 0.195262C0.986958 0.0702379 1.15653 0 1.33334 0H11.3333C11.5101 0 11.6797 0.0702379 11.8047 0.195262C11.9298 0.320286 12 0.489856 12 0.666667V8.66667H3.63667Z" fill="#6C7C8C"/>
</svg>
